<svg width="87" height="86" viewBox="0 0 87 86" fill="none" xmlns="http://www.w3.org/2000/svg">
<g clip-path="url(#clip0_1:1427)">
<path d="M38.0312 67.0386L19.3304 20.5051L42.9502 0.329009L66.5701 20.5051L47.8693 67.0386H45.5729H44.5238H41.3766H40.3276H38.0312Z" fill="white" stroke="#424242" stroke-width="0.5"/>
<path d="M43.2533 45.0002L44.4336 48.4378H48.2533L45.1631 50.5625L46.3435 54.0001L43.2533 51.8755L40.1631 54.0001L41.3435 50.5625L38.2533 48.4378H42.073L43.2533 45.0002Z" fill="black"/>
<path d="M43.6979 37.59C42.6846 37.59 41.7779 37.4034 40.9779 37.03C40.1779 36.6434 39.5179 36.1367 38.9979 35.51C38.4779 34.87 38.1179 34.1834 37.9179 33.45L39.7179 32.89C39.9979 33.7834 40.5179 34.49 41.2779 35.01C42.0513 35.53 42.8579 35.79 43.6979 35.79C44.2579 35.79 44.7579 35.6767 45.1979 35.45C45.6513 35.2234 46.0046 34.9367 46.2579 34.59C46.5113 34.2434 46.6379 33.8967 46.6379 33.55C46.6379 33.0034 46.4446 32.51 46.0579 32.07C45.6846 31.63 45.1646 31.3367 44.4979 31.19L41.9779 30.63C40.9113 30.4034 40.0646 29.8967 39.4379 29.11C38.8246 28.31 38.5179 27.3967 38.5179 26.37C38.5179 25.5834 38.7179 24.8767 39.1179 24.25C39.5313 23.61 40.0913 23.11 40.7979 22.75C41.5046 22.39 42.2846 22.21 43.1379 22.21C44.0846 22.21 44.9246 22.3767 45.6579 22.71C46.4046 23.0434 47.0113 23.49 47.4779 24.05C47.9579 24.5967 48.2979 25.19 48.4979 25.83L46.7179 26.47C46.4246 25.6834 45.9379 25.0767 45.2579 24.65C44.5913 24.2234 43.8913 24.01 43.1579 24.01C42.6513 24.01 42.1979 24.1234 41.7979 24.35C41.3979 24.5634 41.0846 24.8434 40.8579 25.19C40.6313 25.5367 40.5179 25.89 40.5179 26.25C40.5179 26.81 40.7179 27.3234 41.1179 27.79C41.5313 28.2434 42.0446 28.5367 42.6579 28.67L44.9379 29.19C46.1379 29.4567 47.0579 29.9634 47.6979 30.71C48.3379 31.4567 48.6579 32.35 48.6579 33.39C48.6579 34.1767 48.4513 34.89 48.0379 35.53C47.6246 36.17 47.0379 36.6767 46.2779 37.05C45.5313 37.41 44.6713 37.59 43.6979 37.59Z" fill="black"/>
<path d="M40.9779 37.03L40.8806 37.2314L40.8834 37.2327L40.9779 37.03ZM38.9979 35.51L38.8244 35.6511L38.8258 35.6528L38.9979 35.51ZM37.9179 33.45L37.8515 33.2365L37.6454 33.3006L37.7022 33.5089L37.9179 33.45ZM39.7179 32.89L39.9313 32.8232L39.8646 32.6102L39.6515 32.6765L39.7179 32.89ZM41.2779 35.01L41.1517 35.1946L41.1532 35.1956L41.2779 35.01ZM45.1979 35.45L45.0979 35.25L45.0955 35.2512L45.1979 35.45ZM46.2579 34.59L46.0774 34.4581L46.0774 34.4581L46.2579 34.59ZM46.0579 32.07L45.8874 32.2147L45.89 32.2177L46.0579 32.07ZM44.4979 31.19L44.4494 31.4083L44.4499 31.4084L44.4979 31.19ZM41.9779 30.63L42.0265 30.4117L42.0244 30.4113L41.9779 30.63ZM39.4379 29.11L39.2604 29.2461L39.263 29.2494L39.4379 29.11ZM39.1179 24.25L38.9301 24.1287L38.9294 24.1297L39.1179 24.25ZM45.6579 22.71L45.5654 22.9136L45.5668 22.9142L45.6579 22.71ZM47.4779 24.05L47.3061 24.1932L47.3099 24.1976L47.4779 24.05ZM48.4979 25.83L48.5736 26.0405L48.7753 25.9679L48.7114 25.7633L48.4979 25.83ZM46.7179 26.47L46.5084 26.5482L46.5856 26.7553L46.7936 26.6805L46.7179 26.47ZM45.2579 24.65L45.1374 24.8384L45.1391 24.8395L45.2579 24.65ZM41.7979 24.35L41.9032 24.5474L41.9082 24.5446L41.7979 24.35ZM40.8579 25.19L40.6708 25.0677L40.6708 25.0677L40.8579 25.19ZM41.1179 27.79L40.9481 27.9356L40.9527 27.9407L41.1179 27.79ZM42.6579 28.67L42.7077 28.452L42.7054 28.4515L42.6579 28.67ZM44.9379 29.19L44.8882 29.4081L44.8894 29.4083L44.9379 29.19ZM47.6979 30.71L47.8677 30.5645L47.8677 30.5645L47.6979 30.71ZM48.0379 35.53L48.2258 35.6514L48.2258 35.6514L48.0379 35.53ZM46.2779 37.05L46.3751 37.2515L46.3765 37.2508L46.2779 37.05ZM43.6979 37.3664C42.7125 37.3664 41.8388 37.185 41.0725 36.8274L40.8834 37.2327C41.7171 37.6217 42.6568 37.8137 43.6979 37.8137V37.3664ZM41.0753 36.8287C40.3014 36.4547 39.6678 35.9671 39.17 35.3672L38.8258 35.6528C39.3681 36.3063 40.0545 36.8321 40.8806 37.2314L41.0753 36.8287ZM39.1715 35.369C38.6694 34.7511 38.3248 34.092 38.1337 33.3912L37.7022 33.5089C37.9111 34.2747 38.2864 34.989 38.8244 35.6511L39.1715 35.369ZM37.9844 33.6636L39.7844 33.1036L39.6515 32.6765L37.8515 33.2365L37.9844 33.6636ZM39.5045 32.9569C39.7993 33.8973 40.3495 34.6458 41.1517 35.1946L41.4042 34.8255C40.6864 34.3343 40.1966 33.6695 39.9313 32.8232L39.5045 32.9569ZM41.1532 35.1956C41.9592 35.7376 42.8087 36.0137 43.6979 36.0137V35.5664C42.9072 35.5664 42.1434 35.3225 41.4027 34.8245L41.1532 35.1956ZM43.6979 36.0137C44.2888 36.0137 44.8247 35.8939 45.3004 35.6488L45.0955 35.2512C44.6912 35.4596 44.227 35.5664 43.6979 35.5664V36.0137ZM45.2979 35.6501C45.7774 35.4103 46.1606 35.1022 46.4385 34.722L46.0774 34.4581C45.8486 34.7712 45.5251 35.0364 45.0979 35.25L45.2979 35.6501ZM46.4385 34.722C46.713 34.3463 46.8616 33.9545 46.8616 33.55H46.4143C46.4143 33.8389 46.3095 34.1405 46.0774 34.4581L46.4385 34.722ZM46.8616 33.55C46.8616 32.945 46.6457 32.4001 46.2259 31.9224L45.89 32.2177C46.2435 32.62 46.4143 33.0618 46.4143 33.55H46.8616ZM46.2285 31.9254C45.818 31.4415 45.2514 31.1268 44.546 30.9716L44.4499 31.4084C45.0778 31.5466 45.5513 31.8185 45.8874 32.2147L46.2285 31.9254ZM44.5464 30.9717L42.0265 30.4117L41.9294 30.8483L44.4494 31.4083L44.5464 30.9717ZM42.0244 30.4113C41.0039 30.1944 40.2044 29.7133 39.6129 28.9707L39.263 29.2494C39.9248 30.0801 40.8186 30.6123 41.9315 30.8488L42.0244 30.4113ZM39.6154 28.974C39.0326 28.2138 38.7416 27.3485 38.7416 26.37H38.2943C38.2943 27.4449 38.6166 28.4063 39.2605 29.2461L39.6154 28.974ZM38.7416 26.37C38.7416 25.6234 38.9307 24.959 39.3064 24.3704L38.9294 24.1297C38.5051 24.7944 38.2943 25.5433 38.2943 26.37H38.7416ZM39.3058 24.3714C39.6968 23.7659 40.2264 23.2922 40.8994 22.9493L40.6964 22.5508C39.9561 22.9279 39.3657 23.4542 38.9301 24.1287L39.3058 24.3714ZM40.8994 22.9493C41.5723 22.6065 42.3171 22.4337 43.1379 22.4337V21.9864C42.2521 21.9864 41.4369 22.1736 40.6964 22.5508L40.8994 22.9493ZM43.1379 22.4337C44.0582 22.4337 44.8658 22.5956 45.5654 22.9136L45.7505 22.5065C44.9834 22.1578 44.111 21.9864 43.1379 21.9864V22.4337ZM45.5668 22.9142C46.2861 23.2354 46.8639 23.6625 47.3061 24.1932L47.6497 23.9069C47.1587 23.3176 46.5231 22.8514 45.7491 22.5058L45.5668 22.9142ZM47.3099 24.1976C47.7711 24.7228 48.0946 25.289 48.2845 25.8967L48.7114 25.7633C48.5013 25.091 48.1448 24.4706 47.646 23.9025L47.3099 24.1976ZM48.4223 25.6196L46.6423 26.2596L46.7936 26.6805L48.5736 26.0405L48.4223 25.6196ZM46.9275 26.3919C46.6178 25.5614 46.1004 24.9147 45.3768 24.4606L45.1391 24.8395C45.7754 25.2387 46.2314 25.8053 46.5084 26.5482L46.9275 26.3919ZM45.3785 24.4617C44.6788 24.0139 43.9374 23.7864 43.1579 23.7864V24.2337C43.8451 24.2337 44.5037 24.4329 45.1374 24.8384L45.3785 24.4617ZM43.1579 23.7864C42.6167 23.7864 42.1247 23.9079 41.6877 24.1555L41.9082 24.5446C42.2712 24.3389 42.6859 24.2337 43.1579 24.2337V23.7864ZM41.6927 24.1527C41.2627 24.382 40.9199 24.6866 40.6708 25.0677L41.0451 25.3124C41.2493 25.0001 41.5331 24.7447 41.9032 24.5474L41.6927 24.1527ZM40.6708 25.0677C40.424 25.4451 40.2943 25.8403 40.2943 26.25H40.7416C40.7416 25.9398 40.8386 25.6283 41.0451 25.3124L40.6708 25.0677ZM40.2943 26.25C40.2943 26.8688 40.517 27.4326 40.9481 27.9356L41.2877 27.6445C40.9188 27.2141 40.7416 26.7513 40.7416 26.25H40.2943ZM40.9527 27.9407C41.398 28.4292 41.9529 28.7456 42.6104 28.8886L42.7054 28.4515C42.1363 28.3278 41.6645 28.0576 41.2832 27.6394L40.9527 27.9407ZM42.6082 28.8881L44.8882 29.4081L44.9877 28.972L42.7077 28.452L42.6082 28.8881ZM44.8894 29.4083C46.0542 29.6672 46.9268 30.154 47.5281 30.8556L47.8677 30.5645C47.1891 29.7728 46.2217 29.2462 44.9865 28.9717L44.8894 29.4083ZM47.5281 30.8556C48.1313 31.5592 48.4343 32.4001 48.4343 33.39H48.8816C48.8816 32.3 48.5446 31.3542 47.8677 30.5645L47.5281 30.8556ZM48.4343 33.39C48.4343 34.1351 48.2393 34.8061 47.8501 35.4087L48.2258 35.6514C48.6633 34.974 48.8816 34.2183 48.8816 33.39H48.4343ZM47.8501 35.4087C47.4611 36.0109 46.9071 36.4918 46.1793 36.8493L46.3765 37.2508C47.1688 36.8616 47.7881 36.3291 48.2258 35.6514L47.8501 35.4087ZM46.1808 36.8486C45.4693 37.1917 44.6435 37.3664 43.6979 37.3664V37.8137C44.6991 37.8137 45.5933 37.6284 46.3751 37.2515L46.1808 36.8486Z" fill="black"/>
<path d="M31.1739 67.2997L12.2309 39.6857L14.9381 32.9108L22.1074 34.2061L36.691 67.2997H35.1861H33.2453H31.1739Z" fill="white" stroke="#424242" stroke-width="0.5"/>
<path d="M49.1554 67.2997L63.739 34.2063L70.9607 32.9106L73.668 39.6857L54.725 67.2997H52.6536H50.7128H49.1554Z" fill="white" stroke="#424242" stroke-width="0.5"/>
<path d="M25.3325 69.3287H60.5674V78.0699H25.3325V69.3287Z" fill="white" stroke="#424242" stroke-width="0.223627"/>
<path d="M63.879 78.1815H22.0212L16.8808 80.527H69.0195L63.879 78.1815Z" fill="black"/>
<path d="M55.801 66.7674H30.0988L25.2207 69.2171H60.6792L55.801 66.7674Z" fill="black"/>
<path d="M17.1308 80.7772H68.7695V85.7499H17.1308V80.7772Z" fill="white" stroke="#424242" stroke-width="0.5"/>
</g>
<defs>
<clipPath id="clip0_1:1427">
<rect width="85.9999" height="86" fill="white" transform="translate(0.332977)"/>
</clipPath>
</defs>
</svg>
