<svg width="61" height="67" viewBox="0 0 61 67" fill="none" xmlns="http://www.w3.org/2000/svg">
<rect width="60.6667" height="67" rx="8" fill="white"/>
<g clip-path="url(#clip0_1:2761)">
<g opacity="0.5">
<mask id="path-3-inside-1_1:2761" fill="white">
<path d="M31.1189 49.2469C30.9653 49.1701 30.8374 49.1189 30.6838 49.0421C30.607 49.0165 30.5302 48.9909 30.4534 48.9397C30.3767 48.9141 30.2999 48.8885 30.2231 48.8629C29.9159 48.7606 29.6088 48.6838 29.3017 48.607C29.0201 48.5302 28.7642 48.479 28.5082 48.4022C28.2779 48.351 28.0475 48.2998 27.8172 48.2487C27.4844 47.2761 27.1517 45.8939 26.563 45.3309C25.872 44.6654 24.7202 44.1279 23.722 43.9231C23.978 44.819 24.5922 46.1499 25.2833 46.8153C25.744 47.2505 26.4862 47.66 27.1261 48.0695C26.3071 47.9159 24.3619 47.3784 23.8244 47.0969C23.7476 46.0475 23.8244 44.6654 23.4149 43.9487C22.9286 43.1297 21.956 42.2851 21.0602 41.8244C21.0602 42.7458 21.2905 44.2047 21.7512 45.0493C22.0584 45.5868 22.6726 46.2011 23.1845 46.7642C22.6982 46.457 21.0346 45.3053 19.8572 44.2815C20.1387 43.2833 20.5995 42.0291 20.4459 41.2357C20.2667 40.2887 19.6013 39.2137 18.9102 38.4459C18.6031 39.3161 18.3471 40.775 18.5263 41.722C18.6543 42.3363 19.0382 43.1041 19.3453 43.7952C18.7822 43.2065 17.4513 41.6452 17.1953 41.1077C17.7328 40.2119 18.5775 39.1113 18.6543 38.2923C18.731 37.3453 18.3983 36.1167 17.9376 35.1953C17.4001 35.9376 16.7602 37.2941 16.6835 38.2411C16.6323 38.8554 16.7858 39.7 16.8882 40.4678C16.6579 39.9304 15.9412 37.9596 15.5317 36.4495C16.2995 35.7328 17.4769 34.8882 17.7584 34.1459C18.0912 33.2501 18.0912 31.9704 17.8864 30.9722C17.1698 31.5609 16.1972 32.687 15.8644 33.5829C15.6597 34.1715 15.5829 35.0162 15.4805 35.784C15.3013 34.965 15.1734 34.1459 15.1222 33.3269C15.0966 32.7126 15.0966 32.0984 15.1478 31.4841C16.0692 30.9978 17.3745 30.4859 17.8608 29.8204C18.4239 29.0526 18.7822 27.824 18.859 26.8002C18.0144 27.1586 16.7602 27.9776 16.2227 28.7454C15.8644 29.2573 15.5573 30.0508 15.2501 30.7418C15.3269 30.1276 15.4549 29.5133 15.6085 28.899C15.6597 28.7199 15.7109 28.5407 15.762 28.3615C15.8132 28.1824 15.8644 28.0032 15.9412 27.824C16.0692 27.4657 16.1972 27.133 16.3763 26.8002C16.4531 26.6211 16.5555 26.4419 16.6579 26.2628C17.7072 26.1348 19.0894 26.1348 19.7804 25.6997C20.5739 25.1878 21.3673 24.164 21.8024 23.2426C20.881 23.2682 19.4221 23.5753 18.6287 24.0872C18.1424 24.3943 17.6305 24.9574 17.1442 25.4693C17.2721 25.2646 17.4001 25.0598 17.5281 24.8806C18.1935 23.9336 18.9614 23.089 19.7804 22.2956C20.8042 22.3723 22.2631 22.6795 23.031 22.3979C23.8756 22.0652 24.8226 21.2718 25.4113 20.5039C24.541 20.3504 23.1077 20.3504 22.2631 20.6831C21.6232 20.939 20.8554 21.5277 20.1643 21.9628C20.2923 21.8349 20.4459 21.7325 20.5739 21.6045C21.6232 20.7343 22.7238 19.9153 23.9012 19.2242C24.669 19.4545 25.5392 19.429 26.3071 19.045C27.1261 18.6355 27.7148 17.9189 28.2011 17.0486C27.3309 16.8951 26.2815 16.8951 25.4625 17.3046C24.669 17.6885 24.1059 18.3284 23.7988 19.0706C23.2357 19.3522 22.7238 19.6593 22.1863 19.992C21.828 20.2224 21.4441 20.4783 21.1113 20.7343C21.6744 20.1968 22.3399 19.6337 22.6982 19.1218C23.2101 18.354 23.5428 16.9719 23.594 16.1016C22.6982 16.5111 21.7 17.2278 21.1881 17.97C20.7018 18.6611 20.7018 20.1456 20.5227 21.1694C20.4459 21.2206 20.3947 21.2718 20.3179 21.323C19.3965 22.0652 18.5519 22.8842 17.784 23.7801C18.2447 23.0378 18.987 22.142 19.2685 21.3997C19.6269 20.5039 19.6524 19.0194 19.4989 18.1236C18.6798 18.7379 17.8352 19.6849 17.4769 20.5807C17.1442 21.4253 17.5025 23.0122 17.5281 24.0872C17.3745 24.2664 17.2465 24.4455 17.1186 24.6247C16.709 25.1878 16.3507 25.7509 16.0436 26.3651C16.2227 25.7765 16.3763 25.1878 16.4275 24.7015C16.5043 23.7033 16.0436 22.2444 15.6085 21.3997C14.9942 22.27 14.4823 23.4729 14.4055 24.4455C14.3543 25.3157 15.071 26.5955 15.4805 27.6193V27.6449C15.4037 27.824 15.3525 28.0032 15.3013 28.1824C15.2501 28.3615 15.199 28.5407 15.1222 28.7454C14.9686 29.3341 14.815 29.9228 14.7383 30.5115C14.7383 29.8204 14.7383 29.1294 14.6103 28.5919C14.3799 27.5937 13.4841 26.2883 12.8186 25.5717C12.4603 26.5955 12.3067 27.952 12.5371 28.9502C12.7419 29.846 13.868 30.921 14.5847 31.8168C14.5591 32.3287 14.5335 32.815 14.5591 33.3269C14.5847 33.7876 14.6103 34.2483 14.6871 34.7346C14.4567 34.0692 14.2264 33.3781 13.9448 32.8918C13.4073 32.0216 12.1532 31.0746 11.283 30.6139C11.283 31.6888 11.5645 33.0198 12.102 33.89C12.5627 34.6578 13.9448 35.2977 14.8918 35.8864C14.9686 36.2703 15.071 36.7566 15.1734 37.1149C15.3269 37.7292 15.5829 38.625 16.018 39.7C15.6597 39.1113 15.3013 38.5226 14.9174 38.1387C14.2008 37.3965 12.7675 36.7566 11.8204 36.4751C12.0508 37.5244 12.6139 38.7786 13.3305 39.5208C13.9704 40.1863 15.5061 40.519 16.5555 40.903C16.7858 41.3637 17.0418 41.7988 17.3233 42.2083C17.5793 42.5922 17.8608 42.9761 18.1424 43.3345C17.6049 42.8738 17.0418 42.413 16.5555 42.1571C15.6597 41.6964 14.0728 41.5428 13.1002 41.594C13.6633 42.5154 14.6103 43.5136 15.5061 43.9743C16.2995 44.3838 17.8096 44.2303 18.9358 44.2559C19.2685 44.435 19.5757 44.819 19.934 45.0493C20.3947 45.4588 21.1113 46.0475 22.0584 46.6618C21.4441 46.3802 20.8042 46.0987 20.2667 45.9963C19.2685 45.7916 17.7072 46.0731 16.7858 46.4058C17.5793 47.1481 18.7566 47.8391 19.7548 48.0439C20.6506 48.2231 22.1095 47.6344 23.2101 47.3528C23.6452 47.5832 24.1059 47.8135 24.5922 47.9927C25.0273 48.1719 25.4625 48.3254 25.9232 48.4534C25.2321 48.3766 24.4899 48.3254 23.9268 48.3766C22.9286 48.5046 21.5209 49.2724 20.753 49.8867C21.7512 50.3218 23.0821 50.6034 24.0803 50.4754C24.9762 50.3474 26.1279 49.3748 27.0493 48.735C27.1005 48.735 27.1261 48.7606 27.1773 48.7606C27.2541 48.7861 27.3053 48.7861 27.3821 48.8117C27.9963 48.9653 28.585 49.1189 29.1737 49.2724C29.4808 49.3492 29.7624 49.426 30.0439 49.5284C30.1207 49.554 30.1719 49.5796 30.2487 49.6052C30.2999 49.6308 30.4022 49.6564 30.4534 49.682C30.5814 49.7332 30.735 49.8099 30.863 49.8611C31.3748 50.1427 31.8611 50.4754 32.2963 50.8849C32.3219 50.9105 32.3474 50.9361 32.3986 50.9873L32.4498 50.0659C31.9891 49.7332 31.554 49.4772 31.1189 49.2469Z"/>
</mask>
<path d="M31.1189 49.2469C30.9653 49.1701 30.8374 49.1189 30.6838 49.0421C30.607 49.0165 30.5302 48.9909 30.4534 48.9397C30.3767 48.9141 30.2999 48.8885 30.2231 48.8629C29.9159 48.7606 29.6088 48.6838 29.3017 48.607C29.0201 48.5302 28.7642 48.479 28.5082 48.4022C28.2779 48.351 28.0475 48.2998 27.8172 48.2487C27.4844 47.2761 27.1517 45.8939 26.563 45.3309C25.872 44.6654 24.7202 44.1279 23.722 43.9231C23.978 44.819 24.5922 46.1499 25.2833 46.8153C25.744 47.2505 26.4862 47.66 27.1261 48.0695C26.3071 47.9159 24.3619 47.3784 23.8244 47.0969C23.7476 46.0475 23.8244 44.6654 23.4149 43.9487C22.9286 43.1297 21.956 42.2851 21.0602 41.8244C21.0602 42.7458 21.2905 44.2047 21.7512 45.0493C22.0584 45.5868 22.6726 46.2011 23.1845 46.7642C22.6982 46.457 21.0346 45.3053 19.8572 44.2815C20.1387 43.2833 20.5995 42.0291 20.4459 41.2357C20.2667 40.2887 19.6013 39.2137 18.9102 38.4459C18.6031 39.3161 18.3471 40.775 18.5263 41.722C18.6543 42.3363 19.0382 43.1041 19.3453 43.7952C18.7822 43.2065 17.4513 41.6452 17.1953 41.1077C17.7328 40.2119 18.5775 39.1113 18.6543 38.2923C18.731 37.3453 18.3983 36.1167 17.9376 35.1953C17.4001 35.9376 16.7602 37.2941 16.6835 38.2411C16.6323 38.8554 16.7858 39.7 16.8882 40.4678C16.6579 39.9304 15.9412 37.9596 15.5317 36.4495C16.2995 35.7328 17.4769 34.8882 17.7584 34.1459C18.0912 33.2501 18.0912 31.9704 17.8864 30.9722C17.1698 31.5609 16.1972 32.687 15.8644 33.5829C15.6597 34.1715 15.5829 35.0162 15.4805 35.784C15.3013 34.965 15.1734 34.1459 15.1222 33.3269C15.0966 32.7126 15.0966 32.0984 15.1478 31.4841C16.0692 30.9978 17.3745 30.4859 17.8608 29.8204C18.4239 29.0526 18.7822 27.824 18.859 26.8002C18.0144 27.1586 16.7602 27.9776 16.2227 28.7454C15.8644 29.2573 15.5573 30.0508 15.2501 30.7418C15.3269 30.1276 15.4549 29.5133 15.6085 28.899C15.6597 28.7199 15.7109 28.5407 15.762 28.3615C15.8132 28.1824 15.8644 28.0032 15.9412 27.824C16.0692 27.4657 16.1972 27.133 16.3763 26.8002C16.4531 26.6211 16.5555 26.4419 16.6579 26.2628C17.7072 26.1348 19.0894 26.1348 19.7804 25.6997C20.5739 25.1878 21.3673 24.164 21.8024 23.2426C20.881 23.2682 19.4221 23.5753 18.6287 24.0872C18.1424 24.3943 17.6305 24.9574 17.1442 25.4693C17.2721 25.2646 17.4001 25.0598 17.5281 24.8806C18.1935 23.9336 18.9614 23.089 19.7804 22.2956C20.8042 22.3723 22.2631 22.6795 23.031 22.3979C23.8756 22.0652 24.8226 21.2718 25.4113 20.5039C24.541 20.3504 23.1077 20.3504 22.2631 20.6831C21.6232 20.939 20.8554 21.5277 20.1643 21.9628C20.2923 21.8349 20.4459 21.7325 20.5739 21.6045C21.6232 20.7343 22.7238 19.9153 23.9012 19.2242C24.669 19.4545 25.5392 19.429 26.3071 19.045C27.1261 18.6355 27.7148 17.9189 28.2011 17.0486C27.3309 16.8951 26.2815 16.8951 25.4625 17.3046C24.669 17.6885 24.1059 18.3284 23.7988 19.0706C23.2357 19.3522 22.7238 19.6593 22.1863 19.992C21.828 20.2224 21.4441 20.4783 21.1113 20.7343C21.6744 20.1968 22.3399 19.6337 22.6982 19.1218C23.2101 18.354 23.5428 16.9719 23.594 16.1016C22.6982 16.5111 21.7 17.2278 21.1881 17.97C20.7018 18.6611 20.7018 20.1456 20.5227 21.1694C20.4459 21.2206 20.3947 21.2718 20.3179 21.323C19.3965 22.0652 18.5519 22.8842 17.784 23.7801C18.2447 23.0378 18.987 22.142 19.2685 21.3997C19.6269 20.5039 19.6524 19.0194 19.4989 18.1236C18.6798 18.7379 17.8352 19.6849 17.4769 20.5807C17.1442 21.4253 17.5025 23.0122 17.5281 24.0872C17.3745 24.2664 17.2465 24.4455 17.1186 24.6247C16.709 25.1878 16.3507 25.7509 16.0436 26.3651C16.2227 25.7765 16.3763 25.1878 16.4275 24.7015C16.5043 23.7033 16.0436 22.2444 15.6085 21.3997C14.9942 22.27 14.4823 23.4729 14.4055 24.4455C14.3543 25.3157 15.071 26.5955 15.4805 27.6193V27.6449C15.4037 27.824 15.3525 28.0032 15.3013 28.1824C15.2501 28.3615 15.199 28.5407 15.1222 28.7454C14.9686 29.3341 14.815 29.9228 14.7383 30.5115C14.7383 29.8204 14.7383 29.1294 14.6103 28.5919C14.3799 27.5937 13.4841 26.2883 12.8186 25.5717C12.4603 26.5955 12.3067 27.952 12.5371 28.9502C12.7419 29.846 13.868 30.921 14.5847 31.8168C14.5591 32.3287 14.5335 32.815 14.5591 33.3269C14.5847 33.7876 14.6103 34.2483 14.6871 34.7346C14.4567 34.0692 14.2264 33.3781 13.9448 32.8918C13.4073 32.0216 12.1532 31.0746 11.283 30.6139C11.283 31.6888 11.5645 33.0198 12.102 33.89C12.5627 34.6578 13.9448 35.2977 14.8918 35.8864C14.9686 36.2703 15.071 36.7566 15.1734 37.1149C15.3269 37.7292 15.5829 38.625 16.018 39.7C15.6597 39.1113 15.3013 38.5226 14.9174 38.1387C14.2008 37.3965 12.7675 36.7566 11.8204 36.4751C12.0508 37.5244 12.6139 38.7786 13.3305 39.5208C13.9704 40.1863 15.5061 40.519 16.5555 40.903C16.7858 41.3637 17.0418 41.7988 17.3233 42.2083C17.5793 42.5922 17.8608 42.9761 18.1424 43.3345C17.6049 42.8738 17.0418 42.413 16.5555 42.1571C15.6597 41.6964 14.0728 41.5428 13.1002 41.594C13.6633 42.5154 14.6103 43.5136 15.5061 43.9743C16.2995 44.3838 17.8096 44.2303 18.9358 44.2559C19.2685 44.435 19.5757 44.819 19.934 45.0493C20.3947 45.4588 21.1113 46.0475 22.0584 46.6618C21.4441 46.3802 20.8042 46.0987 20.2667 45.9963C19.2685 45.7916 17.7072 46.0731 16.7858 46.4058C17.5793 47.1481 18.7566 47.8391 19.7548 48.0439C20.6506 48.2231 22.1095 47.6344 23.2101 47.3528C23.6452 47.5832 24.1059 47.8135 24.5922 47.9927C25.0273 48.1719 25.4625 48.3254 25.9232 48.4534C25.2321 48.3766 24.4899 48.3254 23.9268 48.3766C22.9286 48.5046 21.5209 49.2724 20.753 49.8867C21.7512 50.3218 23.0821 50.6034 24.0803 50.4754C24.9762 50.3474 26.1279 49.3748 27.0493 48.735C27.1005 48.735 27.1261 48.7606 27.1773 48.7606C27.2541 48.7861 27.3053 48.7861 27.3821 48.8117C27.9963 48.9653 28.585 49.1189 29.1737 49.2724C29.4808 49.3492 29.7624 49.426 30.0439 49.5284C30.1207 49.554 30.1719 49.5796 30.2487 49.6052C30.2999 49.6308 30.4022 49.6564 30.4534 49.682C30.5814 49.7332 30.735 49.8099 30.863 49.8611C31.3748 50.1427 31.8611 50.4754 32.2963 50.8849C32.3219 50.9105 32.3474 50.9361 32.3986 50.9873L32.4498 50.0659C31.9891 49.7332 31.554 49.4772 31.1189 49.2469Z" stroke="black" stroke-width="0.447254" mask="url(#path-3-inside-1_1:2761)"/>
</g>
<path d="M30.585 32.3586C31.3698 32.5256 31.9626 32.8596 32.3633 33.3605C32.7724 33.8614 32.9769 34.4959 32.9769 35.264C32.9769 36.0989 32.7056 36.7668 32.1629 37.2677C31.6203 37.7603 30.8605 38.0066 29.8837 38.0066C29.4246 38.0066 28.9863 37.9398 28.5688 37.8062C28.1514 37.6643 27.7966 37.4681 27.5043 37.2176L27.3415 35.8401L27.4793 35.815C27.7465 36.1239 28.0804 36.366 28.4812 36.5414C28.8819 36.7083 29.316 36.7918 29.7836 36.7918C30.368 36.7918 30.8271 36.6457 31.1611 36.3535C31.495 36.0613 31.662 35.6564 31.662 35.1388C31.662 34.5544 31.445 34.1119 31.0108 33.8113C30.5767 33.5024 29.9547 33.348 29.1449 33.348H28.8568V32.7469L30.9106 29.5785H27.5169L27.4292 29.4408L27.8049 28.4139H32.6764V29.0275L30.585 32.3586Z" fill="black"/>
<g opacity="0.5">
<mask id="path-5-inside-2_1:2761" fill="white">
<path d="M29.1229 49.2462C29.2765 49.1694 29.4045 49.1182 29.558 49.0415C29.6348 49.0159 29.7116 48.9903 29.7884 48.9391C29.8652 48.9135 29.942 48.8879 30.0187 48.8623C30.3259 48.7599 30.633 48.6831 30.9401 48.6063C31.2217 48.5296 31.4776 48.4784 31.7336 48.4016C31.9639 48.3504 32.1943 48.2992 32.4246 48.248C32.7574 47.2754 33.0901 45.8933 33.6788 45.3302C34.3698 44.6648 35.5216 44.1273 36.5198 43.9225C36.2639 44.8183 35.6496 46.1493 34.9585 46.8147C34.4978 47.2498 33.7556 47.6593 33.1157 48.0689C33.9347 47.9153 35.8799 47.3778 36.4174 47.0963C36.4942 46.0469 36.4174 44.6648 36.8269 43.9481C37.3132 43.1291 38.2858 42.2844 39.1817 41.8237C39.1817 42.7451 38.9513 44.2041 38.4906 45.0487C38.1835 45.5862 37.5692 46.2004 37.0573 46.7635C37.5436 46.4564 39.2073 45.3046 40.3846 44.2808C40.1031 43.2826 39.6424 42.0285 39.7959 41.2351C39.9751 40.288 40.6406 39.2131 41.3316 38.4452C41.6388 39.3155 41.8947 40.7744 41.7155 41.7214C41.5876 42.3356 41.2036 43.1035 40.8965 43.7945C41.4596 43.2059 42.7905 41.6446 43.0465 41.1071C42.509 40.2113 41.6644 39.1107 41.5876 38.2917C41.5108 37.3447 41.8435 36.1161 42.3042 35.1947C42.8417 35.9369 43.4816 37.2935 43.5584 38.2405C43.6096 38.8547 43.456 39.6994 43.3536 40.4672C43.584 39.9297 44.3006 37.9589 44.7101 36.4488C43.9423 35.7322 42.7649 34.8876 42.4834 34.1453C42.1507 33.2495 42.1507 31.9698 42.3554 30.9716C43.0721 31.5602 44.0447 32.6864 44.3774 33.5822C44.5822 34.1709 44.6589 35.0155 44.7613 35.7834C44.9405 34.9643 45.0685 34.1453 45.1196 33.3263C45.1452 32.712 45.1452 32.0977 45.0941 31.4835C44.1726 30.9972 42.8673 30.4853 42.381 29.8198C41.8179 29.0519 41.4596 27.8234 41.3828 26.7996C42.2274 27.1579 43.4816 27.977 44.0191 28.7448C44.3774 29.2567 44.6845 30.0501 44.9917 30.7412C44.9149 30.1269 44.7869 29.5127 44.6333 28.8984C44.5822 28.7192 44.531 28.5401 44.4798 28.3609C44.4286 28.1817 44.3774 28.0026 44.3006 27.8234C44.1726 27.4651 44.0447 27.1323 43.8655 26.7996C43.7887 26.6204 43.6863 26.4413 43.584 26.2621C42.5346 26.1341 41.1525 26.1341 40.4614 25.699C39.668 25.1871 38.8745 24.1633 38.4394 23.2419C39.3608 23.2675 40.8197 23.5747 41.6132 24.0866C42.0995 24.3937 42.6114 24.9568 43.0977 25.4687C42.9697 25.2639 42.8417 25.0592 42.7137 24.88C42.0483 23.933 41.2804 23.0884 40.4614 22.2949C39.4376 22.3717 37.9787 22.6789 37.2109 22.3973C36.3662 22.0646 35.4192 21.2711 34.8306 20.5033C35.7008 20.3497 37.1341 20.3497 37.9787 20.6825C38.6186 20.9384 39.3864 21.5271 40.0775 21.9622C39.9495 21.8342 39.7959 21.7318 39.668 21.6039C38.6186 20.7337 37.518 19.9146 36.3406 19.2236C35.5728 19.4539 34.7026 19.4283 33.9347 19.0444C33.1157 18.6349 32.527 17.9182 32.0407 17.048C32.9109 16.8944 33.9603 16.8944 34.7794 17.304C35.5728 17.6879 36.1359 18.3277 36.443 19.07C37.0061 19.3515 37.518 19.6587 38.0555 19.9914C38.4138 20.2218 38.7977 20.4777 39.1305 20.7337C38.5674 20.1962 37.9019 19.6331 37.5436 19.1212C37.0317 18.3533 36.699 16.9712 36.6478 16.101C37.5436 16.5105 38.5418 17.2272 39.0537 17.9694C39.54 18.6605 39.54 20.145 39.7192 21.1688C39.7959 21.22 39.8471 21.2711 39.9239 21.3223C40.8453 22.0646 41.6899 22.8836 42.4578 23.7794C41.9971 23.0372 41.2548 22.1414 40.9733 21.3991C40.615 20.5033 40.5894 19.0188 40.7429 18.123C41.562 18.7373 42.4066 19.6843 42.7649 20.5801C43.0977 21.4247 42.7393 23.0116 42.7137 24.0866C42.8673 24.2657 42.9953 24.4449 43.1233 24.6241C43.5328 25.1871 43.8911 25.7502 44.1982 26.3645C44.0191 25.7758 43.8655 25.1871 43.8143 24.7008C43.7375 23.7026 44.1982 22.2437 44.6333 21.3991C45.2476 22.2693 45.7595 23.4723 45.8363 24.4449C45.8875 25.3151 45.1708 26.5949 44.7613 27.6186V27.6442C44.8381 27.8234 44.8893 28.0026 44.9405 28.1817C44.9917 28.3609 45.0429 28.5401 45.1196 28.7448C45.2732 29.3335 45.4268 29.9222 45.5036 30.5109C45.5036 29.8198 45.5036 29.1287 45.6315 28.5912C45.8619 27.593 46.7577 26.2877 47.4232 25.5711C47.7815 26.5949 47.9351 27.9514 47.7047 28.9496C47.5 29.8454 46.3738 30.9204 45.6571 31.8162C45.6827 32.3281 45.7083 32.8144 45.6827 33.3263C45.6571 33.787 45.6315 34.2477 45.5548 34.734C45.7851 34.0685 46.0155 33.3775 46.297 32.8912C46.8345 32.0209 48.0886 31.0739 48.9589 30.6132C48.9589 31.6882 48.6773 33.0191 48.1398 33.8894C47.6791 34.6572 46.297 35.2971 45.35 35.8858C45.2732 36.2697 45.1708 36.756 45.0685 37.1143C44.9149 37.7286 44.6589 38.6244 44.2238 39.6994C44.5822 39.1107 44.9405 38.522 45.3244 38.1381C46.0411 37.3958 47.4744 36.756 48.4214 36.4744C48.191 37.5238 47.6279 38.778 46.9113 39.5202C46.2714 40.1857 44.7357 40.5184 43.6863 40.9023C43.456 41.363 43.2 41.7981 42.9185 42.2077C42.6625 42.5916 42.381 42.9755 42.0995 43.3338C42.637 42.8731 43.2 42.4124 43.6863 42.1565C44.5822 41.6958 46.169 41.5422 47.1416 41.5934C46.5785 42.5148 45.6315 43.513 44.7357 43.9737C43.9423 44.3832 42.4322 44.2296 41.306 44.2552C40.9733 44.4344 40.6662 44.8183 40.3078 45.0487C39.8471 45.4582 39.1305 46.0469 38.1835 46.6611C38.7977 46.3796 39.4376 46.0981 39.9751 45.9957C40.9733 45.7909 42.5346 46.0725 43.456 46.4052C42.6625 47.1474 41.4852 47.8385 40.487 48.0433C39.5912 48.2224 38.1323 47.6337 37.0317 47.3522C36.5966 47.5826 36.1359 47.8129 35.6496 47.9921C35.2145 48.1712 34.7794 48.3248 34.3187 48.4528C35.0097 48.376 35.752 48.3248 36.315 48.376C37.3132 48.504 38.721 49.2718 39.4888 49.8861C38.4906 50.3212 37.1597 50.6027 36.1615 50.4748C35.2657 50.3468 34.1139 49.3742 33.1925 48.7343C33.1413 48.7343 33.1157 48.7599 33.0645 48.7599C32.9877 48.7855 32.9365 48.7855 32.8598 48.8111C32.2455 48.9647 31.6568 49.1182 31.0681 49.2718C30.761 49.3486 30.4794 49.4254 30.1979 49.5278C30.1211 49.5534 30.0699 49.5789 29.9931 49.6045C29.942 49.6301 29.8396 49.6557 29.7884 49.6813C29.6604 49.7325 29.5068 49.8093 29.3789 49.8605C28.867 50.142 28.3807 50.4748 27.9456 50.8843C27.92 50.9099 27.8944 50.9355 27.8432 50.9867L27.792 50.0653C28.2527 49.7325 28.6878 49.4766 29.1229 49.2462Z"/>
</mask>
<path d="M29.1229 49.2462C29.2765 49.1694 29.4045 49.1182 29.558 49.0415C29.6348 49.0159 29.7116 48.9903 29.7884 48.9391C29.8652 48.9135 29.942 48.8879 30.0187 48.8623C30.3259 48.7599 30.633 48.6831 30.9401 48.6063C31.2217 48.5296 31.4776 48.4784 31.7336 48.4016C31.9639 48.3504 32.1943 48.2992 32.4246 48.248C32.7574 47.2754 33.0901 45.8933 33.6788 45.3302C34.3698 44.6648 35.5216 44.1273 36.5198 43.9225C36.2639 44.8183 35.6496 46.1493 34.9585 46.8147C34.4978 47.2498 33.7556 47.6593 33.1157 48.0689C33.9347 47.9153 35.8799 47.3778 36.4174 47.0963C36.4942 46.0469 36.4174 44.6648 36.8269 43.9481C37.3132 43.1291 38.2858 42.2844 39.1817 41.8237C39.1817 42.7451 38.9513 44.2041 38.4906 45.0487C38.1835 45.5862 37.5692 46.2004 37.0573 46.7635C37.5436 46.4564 39.2073 45.3046 40.3846 44.2808C40.1031 43.2826 39.6424 42.0285 39.7959 41.2351C39.9751 40.288 40.6406 39.2131 41.3316 38.4452C41.6388 39.3155 41.8947 40.7744 41.7155 41.7214C41.5876 42.3356 41.2036 43.1035 40.8965 43.7945C41.4596 43.2059 42.7905 41.6446 43.0465 41.1071C42.509 40.2113 41.6644 39.1107 41.5876 38.2917C41.5108 37.3447 41.8435 36.1161 42.3042 35.1947C42.8417 35.9369 43.4816 37.2935 43.5584 38.2405C43.6096 38.8547 43.456 39.6994 43.3536 40.4672C43.584 39.9297 44.3006 37.9589 44.7101 36.4488C43.9423 35.7322 42.7649 34.8876 42.4834 34.1453C42.1507 33.2495 42.1507 31.9698 42.3554 30.9716C43.0721 31.5602 44.0447 32.6864 44.3774 33.5822C44.5822 34.1709 44.6589 35.0155 44.7613 35.7834C44.9405 34.9643 45.0685 34.1453 45.1196 33.3263C45.1452 32.712 45.1452 32.0977 45.0941 31.4835C44.1726 30.9972 42.8673 30.4853 42.381 29.8198C41.8179 29.0519 41.4596 27.8234 41.3828 26.7996C42.2274 27.1579 43.4816 27.977 44.0191 28.7448C44.3774 29.2567 44.6845 30.0501 44.9917 30.7412C44.9149 30.1269 44.7869 29.5127 44.6333 28.8984C44.5822 28.7192 44.531 28.5401 44.4798 28.3609C44.4286 28.1817 44.3774 28.0026 44.3006 27.8234C44.1726 27.4651 44.0447 27.1323 43.8655 26.7996C43.7887 26.6204 43.6863 26.4413 43.584 26.2621C42.5346 26.1341 41.1525 26.1341 40.4614 25.699C39.668 25.1871 38.8745 24.1633 38.4394 23.2419C39.3608 23.2675 40.8197 23.5747 41.6132 24.0866C42.0995 24.3937 42.6114 24.9568 43.0977 25.4687C42.9697 25.2639 42.8417 25.0592 42.7137 24.88C42.0483 23.933 41.2804 23.0884 40.4614 22.2949C39.4376 22.3717 37.9787 22.6789 37.2109 22.3973C36.3662 22.0646 35.4192 21.2711 34.8306 20.5033C35.7008 20.3497 37.1341 20.3497 37.9787 20.6825C38.6186 20.9384 39.3864 21.5271 40.0775 21.9622C39.9495 21.8342 39.7959 21.7318 39.668 21.6039C38.6186 20.7337 37.518 19.9146 36.3406 19.2236C35.5728 19.4539 34.7026 19.4283 33.9347 19.0444C33.1157 18.6349 32.527 17.9182 32.0407 17.048C32.9109 16.8944 33.9603 16.8944 34.7794 17.304C35.5728 17.6879 36.1359 18.3277 36.443 19.07C37.0061 19.3515 37.518 19.6587 38.0555 19.9914C38.4138 20.2218 38.7977 20.4777 39.1305 20.7337C38.5674 20.1962 37.9019 19.6331 37.5436 19.1212C37.0317 18.3533 36.699 16.9712 36.6478 16.101C37.5436 16.5105 38.5418 17.2272 39.0537 17.9694C39.54 18.6605 39.54 20.145 39.7192 21.1688C39.7959 21.22 39.8471 21.2711 39.9239 21.3223C40.8453 22.0646 41.6899 22.8836 42.4578 23.7794C41.9971 23.0372 41.2548 22.1414 40.9733 21.3991C40.615 20.5033 40.5894 19.0188 40.7429 18.123C41.562 18.7373 42.4066 19.6843 42.7649 20.5801C43.0977 21.4247 42.7393 23.0116 42.7137 24.0866C42.8673 24.2657 42.9953 24.4449 43.1233 24.6241C43.5328 25.1871 43.8911 25.7502 44.1982 26.3645C44.0191 25.7758 43.8655 25.1871 43.8143 24.7008C43.7375 23.7026 44.1982 22.2437 44.6333 21.3991C45.2476 22.2693 45.7595 23.4723 45.8363 24.4449C45.8875 25.3151 45.1708 26.5949 44.7613 27.6186V27.6442C44.8381 27.8234 44.8893 28.0026 44.9405 28.1817C44.9917 28.3609 45.0429 28.5401 45.1196 28.7448C45.2732 29.3335 45.4268 29.9222 45.5036 30.5109C45.5036 29.8198 45.5036 29.1287 45.6315 28.5912C45.8619 27.593 46.7577 26.2877 47.4232 25.5711C47.7815 26.5949 47.9351 27.9514 47.7047 28.9496C47.5 29.8454 46.3738 30.9204 45.6571 31.8162C45.6827 32.3281 45.7083 32.8144 45.6827 33.3263C45.6571 33.787 45.6315 34.2477 45.5548 34.734C45.7851 34.0685 46.0155 33.3775 46.297 32.8912C46.8345 32.0209 48.0886 31.0739 48.9589 30.6132C48.9589 31.6882 48.6773 33.0191 48.1398 33.8894C47.6791 34.6572 46.297 35.2971 45.35 35.8858C45.2732 36.2697 45.1708 36.756 45.0685 37.1143C44.9149 37.7286 44.6589 38.6244 44.2238 39.6994C44.5822 39.1107 44.9405 38.522 45.3244 38.1381C46.0411 37.3958 47.4744 36.756 48.4214 36.4744C48.191 37.5238 47.6279 38.778 46.9113 39.5202C46.2714 40.1857 44.7357 40.5184 43.6863 40.9023C43.456 41.363 43.2 41.7981 42.9185 42.2077C42.6625 42.5916 42.381 42.9755 42.0995 43.3338C42.637 42.8731 43.2 42.4124 43.6863 42.1565C44.5822 41.6958 46.169 41.5422 47.1416 41.5934C46.5785 42.5148 45.6315 43.513 44.7357 43.9737C43.9423 44.3832 42.4322 44.2296 41.306 44.2552C40.9733 44.4344 40.6662 44.8183 40.3078 45.0487C39.8471 45.4582 39.1305 46.0469 38.1835 46.6611C38.7977 46.3796 39.4376 46.0981 39.9751 45.9957C40.9733 45.7909 42.5346 46.0725 43.456 46.4052C42.6625 47.1474 41.4852 47.8385 40.487 48.0433C39.5912 48.2224 38.1323 47.6337 37.0317 47.3522C36.5966 47.5826 36.1359 47.8129 35.6496 47.9921C35.2145 48.1712 34.7794 48.3248 34.3187 48.4528C35.0097 48.376 35.752 48.3248 36.315 48.376C37.3132 48.504 38.721 49.2718 39.4888 49.8861C38.4906 50.3212 37.1597 50.6027 36.1615 50.4748C35.2657 50.3468 34.1139 49.3742 33.1925 48.7343C33.1413 48.7343 33.1157 48.7599 33.0645 48.7599C32.9877 48.7855 32.9365 48.7855 32.8598 48.8111C32.2455 48.9647 31.6568 49.1182 31.0681 49.2718C30.761 49.3486 30.4794 49.4254 30.1979 49.5278C30.1211 49.5534 30.0699 49.5789 29.9931 49.6045C29.942 49.6301 29.8396 49.6557 29.7884 49.6813C29.6604 49.7325 29.5068 49.8093 29.3789 49.8605C28.867 50.142 28.3807 50.4748 27.9456 50.8843C27.92 50.9099 27.8944 50.9355 27.8432 50.9867L27.792 50.0653C28.2527 49.7325 28.6878 49.4766 29.1229 49.2462Z" stroke="black" stroke-width="0.447254" mask="url(#path-5-inside-2_1:2761)"/>
</g>
</g>
<rect x="0.5" y="0.5" width="59.6667" height="66" rx="7.5" stroke="black" stroke-opacity="0.1"/>
<defs>
<clipPath id="clip0_1:2761">
<rect width="38.4638" height="38.4639" fill="white" transform="translate(11.1013 14.3121)"/>
</clipPath>
</defs>
</svg>
