<svg width="120" height="22" viewBox="0 0 120 22" fill="none" xmlns="http://www.w3.org/2000/svg">
<path d="M0 9.66484L9.65739 0.00683594H19.3148L4.8287 14.5008L0 9.66484Z" fill="#FF000F"/>
<path d="M21.7156 12.0829L12.0719 21.7547H2.41455L16.9006 7.24698L21.7156 12.0829Z" fill="#FF000F"/>
<path d="M38.7677 5.28501L37.3191 7.78587C36.4361 7.12265 35.7325 6.8325 35.0289 6.8325C34.1321 6.8325 33.5665 7.26082 33.5665 7.96548C33.5665 8.58724 33.8976 8.90504 35.222 9.5268C37.3743 10.5492 38.1193 11.4612 38.1193 13.1883C38.1193 15.8135 36.0498 17.6511 33.1388 17.6511C31.5798 17.6511 30.4761 17.3057 28.7378 16.228L30.2278 13.7271C31.4005 14.5285 32.0903 14.8049 32.987 14.8049C34.0218 14.8049 34.7254 14.2798 34.7254 13.4784C34.7254 12.9119 34.4357 12.5941 33.2078 11.9862C30.8762 10.8118 30.2002 9.96894 30.2002 8.21419C30.2002 5.8515 32.2282 4.11057 34.9875 4.11057C36.2982 4.09675 37.4984 4.46981 38.7677 5.28501Z" fill="black"/>
<path d="M50.7979 5.18803L50.4116 8.42119C49.4596 7.61981 48.4249 7.23293 47.2247 7.23293C44.8241 7.23293 43.1272 8.82188 43.1272 11.0326C43.1272 13.1327 44.6172 14.5421 46.7832 14.5421C47.8041 14.5421 48.756 14.2934 49.777 13.7269L49.3631 17.0567C47.9421 17.568 47.2936 17.6785 46.3003 17.6785C42.4511 17.6785 39.7471 14.998 39.7471 11.1984C39.7471 7.21911 42.8788 4.11031 46.8659 4.11031C48.2594 4.0965 49.4183 4.40047 50.7979 5.18803Z" fill="black"/>
<path d="M65.836 10.2175C65.836 10.3004 65.836 10.3971 65.836 10.4662C65.836 14.7494 62.9802 17.651 58.7585 17.651C54.5231 17.651 51.6396 14.9843 51.6396 11.0603C51.6396 6.9705 54.6886 4.09659 59.0068 4.09659C62.9526 4.09659 65.6704 6.51455 65.836 10.2175ZM62.4283 10.5905C62.3041 8.53181 60.9245 7.21921 58.8689 7.21921C56.6477 7.21921 55.0197 8.78051 55.0197 10.9359C55.0197 13.0914 56.4821 14.5145 58.6757 14.5145C60.8969 14.5145 62.4421 13.0085 62.4421 10.8116C62.4421 10.7425 62.4421 10.6734 62.4283 10.5905Z" fill="black"/>
<path d="M80.06 4.34537L79.1356 11.9032C78.8183 14.4041 78.4872 15.4127 77.6456 16.2141C76.6661 17.1536 75.1071 17.6648 73.1894 17.6648C69.8093 17.6648 67.7537 16.0068 67.7537 13.202C67.7537 12.8151 67.8088 12.2072 67.9054 11.4058L68.7608 4.35918H72.0443L71.1889 11.4058C71.1476 11.7927 71.1338 12.1657 71.1338 12.4973C71.1338 13.8652 71.8374 14.5284 73.286 14.5284C74.1 14.5284 74.7484 14.3073 75.1485 13.879C75.5624 13.4092 75.7003 12.9533 75.8521 11.7789L76.7489 4.34537H80.06Z" fill="black"/>
<path d="M87.2891 7.21928L86.0198 17.4023H82.7363L83.9918 7.21928H81.2188L81.5637 4.34537H90.4209L90.076 7.21928H87.2891Z" fill="black"/>
<path d="M95.1808 4.34537L93.9253 14.5284H98.0918L97.7193 17.4023H90.2693L91.8697 4.34537H95.1808Z" fill="black"/>
<path d="M104.41 4.34537L102.81 17.4023H99.5127L101.113 4.34537H104.41Z" fill="black"/>
<path d="M120 4.34523L118.4 17.4022H114.785L111.322 11.5438C110.756 10.6181 110.274 9.62328 109.722 8.31067V8.89099C109.722 9.87198 109.68 10.549 109.584 11.3504L108.839 17.3746H105.542L107.142 4.31759H110.701L114.413 10.6181L114.978 11.6682L115.489 12.663L115.737 13.1466C115.751 12.3314 115.792 11.682 115.889 10.9221L116.689 4.30377H120V4.34523Z" fill="black"/>
</svg>
