<svg width="62" height="67" viewBox="0 0 62 67" fill="none" xmlns="http://www.w3.org/2000/svg">
<rect x="0.666748" width="60.6667" height="67" rx="8" fill="white"/>
<g clip-path="url(#clip0_1:2767)">
<path d="M30.1876 44.5274L29.8809 44.6751H29.8738L29.8688 44.6759C29.8673 44.6756 29.8645 44.6749 29.8603 44.6734C29.8489 44.6693 29.8328 44.6613 29.8122 44.6479C29.7708 44.621 29.7226 44.5801 29.6729 44.5323C29.5755 44.4384 29.4854 44.3302 29.4509 44.2861C28.4458 42.8799 26.9663 41.5929 25.7031 40.743C24.2939 39.7763 22.6729 39.0876 21.058 38.5381L20.7295 38.4024L20.7298 38.4016L20.7165 38.3979L20.5704 38.3577L21.5369 36.9708L21.5369 36.9708L21.5373 36.9703L22.9355 34.9377L22.9357 34.9374L23.9068 33.5336C24.3786 33.9587 24.7899 34.4731 25.1941 34.9789C25.314 35.1289 25.4333 35.2782 25.5534 35.4242C27.0659 37.3146 28.4099 39.3606 29.3288 41.6312L29.329 41.6317C29.7184 42.581 30.0412 43.5089 30.3188 44.4571L30.1876 44.5274Z" fill="white" stroke="#787878" stroke-width="0.223627"/>
<path d="M40.5512 36.9931L40.5514 36.9933L41.4951 38.3575L41.3483 38.3979L41.3483 38.3977L41.3416 38.4L41.0098 38.5142L41.0089 38.5145C39.393 39.087 37.7957 39.7758 36.363 40.7192L36.363 40.7192L36.3621 40.7198C35.0976 41.5706 33.6178 42.8811 32.613 44.2644L32.6081 44.2712L32.6043 44.2786C32.5982 44.2902 32.5781 44.3197 32.5431 44.3622C32.5099 44.4025 32.468 44.449 32.4232 44.4935C32.3782 44.5382 32.3322 44.579 32.2909 44.6092C32.2533 44.6367 32.2287 44.6484 32.2171 44.6523H32.217H32.2169H32.2168H32.2167H32.2167H32.2166H32.2165H32.2164H32.2163H32.2162H32.2161H32.216H32.2159H32.2159H32.2158H32.2157H32.2156H32.2155H32.2154H32.2153H32.2152H32.2152H32.2151H32.215H32.2149H32.2148H32.2147H32.2146H32.2146H32.2145H32.2144H32.2143H32.2142H32.2141H32.2141H32.214H32.2139H32.2138H32.2137H32.2136H32.2136H32.2135H32.2134H32.2133H32.2132H32.2132H32.2131H32.213H32.2129H32.2128H32.2128H32.2127H32.2126H32.2125H32.2124H32.2124H32.2123H32.2122H32.2121H32.2121H32.212H32.2119H32.2118H32.2117H32.2117H32.2116H32.2115H32.2114H32.2114H32.2113H32.2112H32.2111H32.2111H32.211H32.2109H32.2108H32.2108H32.2107H32.2106H32.2105H32.2105H32.2104H32.2103H32.2102H32.2102H32.2101H32.21H32.21H32.2099H32.2098H32.2097H32.2097H32.2096H32.2095H32.2094H32.2094H32.2093H32.2092H32.2092H32.2091H32.209H32.2089H32.2089H32.2088H32.2087H32.2087H32.2086H32.2085H32.2084H32.2084H32.2083H32.2082H32.2082H32.2081H32.208H32.2079H32.2079H32.2078H32.2077H32.2077H32.2076H32.2075H32.2075H32.2074H32.2073H32.2072H32.2072H32.2071H32.207H32.207H32.2069H32.2068H32.2068H32.2067H32.2066H32.2065H32.2065H32.2064H32.2063H32.2063H32.2062H32.2061H32.2061H32.206H32.2059H32.2059H32.2058L31.921 44.5256L31.7708 44.4532C32.0484 43.5045 32.3707 42.5575 32.7592 41.6325L32.7594 41.6319C33.6785 39.4064 35.0228 37.3598 36.5359 35.446C36.6063 35.3575 36.6765 35.2684 36.7468 35.1793C37.198 34.6075 37.6524 34.0315 38.1816 33.5563L39.1528 34.9602L39.153 34.9605L40.5512 36.9931Z" fill="white" stroke="#787878" stroke-width="0.223627"/>
<path d="M29.5506 28.522H32.774H34.6274L31.332 44.3782H31.186H30.8542H30.7555L27.4602 28.522H29.5506Z" fill="white" stroke="#787878" stroke-width="0.223627"/>
<path d="M46.8951 33.8402L46.867 33.8944L46.8973 33.9473L49.627 38.7044L44.0478 37.8924L43.9912 37.8841L43.9514 37.9252L40.0988 41.9016L39.1647 36.5221L39.1545 36.4637L39.1005 36.4393L34.0067 34.1382L37.0659 32.6214L37.2661 32.5221L37.256 32.517L39.0098 31.6391L39.0631 31.6123L39.0706 31.5531L39.754 26.1531L43.7889 29.9757L43.8303 30.0149L43.8863 30.0045L49.4203 28.9729L46.8951 33.8402ZM15.1921 33.8402L12.6669 28.9729L18.2009 30.0045L18.2569 30.0149L18.2983 29.9757L22.3332 26.1531L23.0166 31.5531L23.0241 31.6123L23.0774 31.6391L24.8312 32.517L24.8211 32.5221L25.0213 32.6214L28.0805 34.1382L22.9867 36.4393L22.9327 36.4637L22.9225 36.5221L21.9884 41.9016L18.1358 37.9252L18.096 37.8841L18.0394 37.8924L12.4602 38.7044L15.1899 33.9473L15.2203 33.8944L15.1921 33.8402ZM30.9932 29.4064L25.0766 32.3932L26.2002 26.054L26.2108 25.9944L26.1667 25.953L21.3831 21.4533L28.0017 20.5264L28.0593 20.5183L28.0858 20.4665L31.0436 14.6771L34.0014 20.4665L34.0279 20.5183L34.0855 20.5264L40.7041 21.4533L35.9205 25.953L35.8764 25.9944L35.887 26.054L37.0106 32.3932L31.094 29.4064L31.0436 29.381L30.9932 29.4064Z" fill="white" stroke="#787878" stroke-width="0.223627"/>
<path d="M32.4328 24.3044C32.728 24.4333 32.9561 24.613 33.1171 24.8438C33.2781 25.0692 33.3586 25.3403 33.3586 25.6569C33.3586 26.2151 33.1708 26.6579 32.7951 26.9853C32.4194 27.3073 31.9041 27.4683 31.2494 27.4683H29.1482L29.2045 26.2607V22.5977L29.1482 21.4304H31.2574C31.6224 21.4304 31.939 21.5028 32.2074 21.6478C32.4757 21.7873 32.6824 21.9859 32.8273 22.2435C32.9776 22.5011 33.0527 22.799 33.0527 23.1371C33.0527 23.3947 32.999 23.6228 32.8917 23.8214C32.7897 24.02 32.6367 24.181 32.4328 24.3044ZM30.0337 22.2193V23.9663H30.9998C31.4184 23.9663 31.719 23.9019 31.9015 23.7731C32.0893 23.6389 32.1832 23.4269 32.1832 23.1371C32.1832 22.8312 32.0893 22.6031 31.9015 22.4528C31.7136 22.2972 31.4184 22.2193 31.0159 22.2193H30.0337ZM31.2494 26.6794C31.6465 26.6794 31.9524 26.5908 32.1671 26.4137C32.3818 26.2312 32.4892 25.979 32.4892 25.6569C32.4892 25.3456 32.3899 25.1175 32.1913 24.9726C31.9981 24.8277 31.6895 24.7553 31.2655 24.7553H30.0337V26.6794H31.2494Z" fill="black"/>
<path d="M32.4328 24.3044L32.317 24.1131L31.9476 24.3367L32.3434 24.5094L32.4328 24.3044ZM33.1171 24.8438L32.9337 24.9718L32.9351 24.9738L33.1171 24.8438ZM32.7951 26.9853L32.9406 27.1551L32.942 27.1539L32.7951 26.9853ZM29.1482 27.4683L28.9248 27.4579L28.9139 27.6919H29.1482V27.4683ZM29.2045 26.2607L29.4281 26.2712V26.2607H29.2045ZM29.2045 22.5977H29.4284L29.4279 22.5869L29.2045 22.5977ZM29.1482 21.4304V21.2068H28.9135L28.9248 21.4412L29.1482 21.4304ZM32.2074 21.6478L32.1011 21.8445L32.1042 21.8462L32.2074 21.6478ZM32.8273 22.2435L32.6323 22.3531L32.6341 22.3562L32.8273 22.2435ZM32.8917 23.8214L32.6949 23.715L32.6927 23.7193L32.8917 23.8214ZM30.0337 22.2193V21.9957H29.8101V22.2193H30.0337ZM30.0337 23.9663H29.8101V24.1899H30.0337V23.9663ZM31.9015 23.7731L32.0304 23.9558L32.0314 23.9551L31.9015 23.7731ZM31.9015 22.4528L31.7588 22.625L31.7618 22.6274L31.9015 22.4528ZM32.1671 26.4137L32.3095 26.5862L32.312 26.5841L32.1671 26.4137ZM32.1913 24.9726L32.0571 25.1516L32.0595 25.1533L32.1913 24.9726ZM30.0337 24.7553V24.5316H29.8101V24.7553H30.0337ZM30.0337 26.6794H29.8101V26.903H30.0337V26.6794ZM32.3434 24.5094C32.6063 24.6241 32.7996 24.7795 32.9337 24.9718L33.3005 24.7159C33.1126 24.4466 32.8497 24.2424 32.5222 24.0995L32.3434 24.5094ZM32.9351 24.9738C33.0653 25.156 33.135 25.38 33.135 25.6569H33.5822C33.5822 25.3006 33.4909 24.9825 33.2991 24.7138L32.9351 24.9738ZM33.135 25.6569C33.135 26.1591 32.9689 26.5372 32.6482 26.8167L32.942 27.1539C33.3726 26.7786 33.5822 26.2711 33.5822 25.6569H33.135ZM32.6495 26.8155C32.3259 27.0929 31.8682 27.2447 31.2494 27.2447V27.6919C31.94 27.6919 32.5128 27.5217 32.9406 27.1551L32.6495 26.8155ZM31.2494 27.2447H29.1482V27.6919H31.2494V27.2447ZM29.3715 27.4787L29.4279 26.2712L28.9811 26.2503L28.9248 27.4579L29.3715 27.4787ZM29.4281 26.2607V22.5977H28.9809V26.2607H29.4281ZM29.4279 22.5869L29.3715 21.4196L28.9248 21.4412L28.9812 22.6085L29.4279 22.5869ZM29.1482 21.654H31.2574V21.2068H29.1482V21.654ZM31.2574 21.654C31.5925 21.654 31.8713 21.7204 32.1011 21.8445L32.3136 21.451C32.0068 21.2853 31.6522 21.2068 31.2574 21.2068V21.654ZM32.1042 21.8462C32.335 21.9661 32.5093 22.1343 32.6324 22.3531L33.0222 22.1339C32.8554 21.8374 32.6165 21.6084 32.3106 21.4493L32.1042 21.8462ZM32.6341 22.3562C32.7619 22.5752 32.8291 22.8332 32.8291 23.1371H33.2763C33.2763 22.7648 33.1932 22.427 33.0204 22.1308L32.6341 22.3562ZM32.8291 23.1371C32.8291 23.3629 32.7823 23.5535 32.695 23.7151L33.0884 23.9277C33.2158 23.6921 33.2763 23.4266 33.2763 23.1371H32.8291ZM32.6927 23.7193C32.611 23.8785 32.488 24.0096 32.317 24.1131L32.5486 24.4958C32.7855 24.3524 32.9684 24.1615 33.0906 23.9236L32.6927 23.7193ZM29.8101 22.2193V23.9663H30.2574V22.2193H29.8101ZM30.0337 24.1899H30.9998V23.7427H30.0337V24.1899ZM30.9998 24.1899C31.43 24.1899 31.7894 24.1259 32.0304 23.9558L31.7725 23.5904C31.6486 23.6779 31.4069 23.7427 30.9998 23.7427V24.1899ZM32.0314 23.9551C32.293 23.7682 32.4069 23.4785 32.4069 23.1371H31.9596C31.9596 23.3753 31.8856 23.5096 31.7715 23.5911L32.0314 23.9551ZM32.4069 23.1371C32.4069 22.7834 32.296 22.4821 32.0412 22.2782L31.7618 22.6274C31.8826 22.7241 31.9596 22.879 31.9596 23.1371H32.4069ZM32.0441 22.2806C31.7973 22.0761 31.4392 21.9957 31.0159 21.9957V22.443C31.3977 22.443 31.6299 22.5182 31.7588 22.625L32.0441 22.2806ZM31.0159 21.9957H30.0337V22.443H31.0159V21.9957ZM31.2494 26.903C31.6767 26.903 32.0406 26.808 32.3094 26.5862L32.0248 26.2412C31.8643 26.3737 31.6163 26.4557 31.2494 26.4557V26.903ZM32.312 26.5841C32.5841 26.3528 32.7128 26.0341 32.7128 25.6569H32.2655C32.2655 25.9238 32.1795 26.1096 32.0223 26.2433L32.312 26.5841ZM32.7128 25.6569C32.7128 25.2953 32.5945 24.9901 32.3231 24.792L32.0595 25.1533C32.1852 25.245 32.2655 25.396 32.2655 25.6569H32.7128ZM32.3255 24.7937C32.0738 24.605 31.7053 24.5316 31.2655 24.5316V24.9789C31.6736 24.9789 31.9224 25.0505 32.0571 25.1515L32.3255 24.7937ZM31.2655 24.5316H30.0337V24.9789H31.2655V24.5316ZM29.8101 24.7553V26.6794H30.2574V24.7553H29.8101ZM30.0337 26.903H31.2494V26.4557H30.0337V26.903Z" fill="black"/>
<path d="M25.1831 49.3117V45.5382H36.9047V49.3117H25.1831Z" fill="white" stroke="black" stroke-width="0.223627"/>
<path d="M38.1064 49.4237H23.9806L22.2742 50.4515H39.8128L38.1064 49.4237Z" fill="black"/>
<path d="M35.3575 44.3301H26.7067L25.0713 45.4264H37.0165L35.3575 44.3301Z" fill="black"/>
<path d="M22.386 52.7835V50.5632H39.7247V52.7835H22.386Z" fill="white" stroke="black" stroke-width="0.223627"/>
</g>
<rect x="1.16675" y="0.5" width="59.6667" height="66" rx="7.5" stroke="black" stroke-opacity="0.1"/>
<defs>
<clipPath id="clip0_1:2767">
<rect width="38.4638" height="38.4639" fill="white" transform="translate(11.7681 14.3121)"/>
</clipPath>
</defs>
</svg>
