<svg width="229" height="170" viewBox="0 0 229 170" fill="none" xmlns="http://www.w3.org/2000/svg">
<g clip-path="url(#clip0_1:783)">
<path d="M124.669 38.3868L114.224 71.7584L85.4892 89.7943L82.2794 104.111L31.9927 118.122L5.75391 212.021L223.459 227L178.115 106.76L172.765 88.7244L144.794 81.2858L138.884 47.4047L124.669 38.3868Z" fill="url(#paint0_linear_1:783)"/>
<path d="M119.076 56.2564C119.987 53.3435 124.295 54.0545 124.222 57.1059L123.893 70.9136C123.869 71.9279 123.264 72.8381 122.338 73.2536L85.4885 89.7944L113.401 72.275C113.932 71.9416 114.327 71.4296 114.514 70.831L119.076 56.2564Z" fill="url(#paint1_linear_1:783)"/>
<path d="M172.765 88.7257L167.161 104.469L110.862 127.753L174.446 112.927L195.183 151.953L178.115 106.762L172.765 88.7257Z" fill="url(#paint2_linear_1:783)"/>
<path d="M85.4925 89.7933L89.8741 101.97L122.532 89.7933C122.532 89.7933 103.936 114.707 101.44 114.351C98.943 113.994 31.996 118.121 31.996 118.121L82.3336 104.11L85.4925 89.7933Z" fill="url(#paint3_linear_1:783)"/>
<path d="M45.2411 161.021L110.66 151.952L89.8724 132.693L184.077 164.18L45.2411 161.021Z" fill="url(#paint4_linear_1:783)"/>
<path d="M44.1045 38.4708C45.9409 34.9225 43.3575 31.7788 40.6495 29.4132C33.5216 22.939 41.1786 14.6283 47.3416 9.99057C48.3065 9.3058 49.1469 8.24752 49.6449 7.06473L49.4893 6.41109C49.4893 6.41109 34.2687 13.9747 32.121 22.2542C29.9733 30.5648 36.2296 28.4172 35.8872 33.1483C35.576 37.8794 28.1057 41.1165 24.464 42.6417C24.464 42.6417 34.2687 42.953 39.778 39.4046C39.778 39.4046 37.7237 45.8788 29.5375 51.2947C29.5375 51.2947 30.9071 50.9523 32.9925 50.2365C33.7707 49.6139 34.5799 48.9914 35.3581 48.3689C38.9064 45.5987 42.0502 42.5795 44.1045 38.4708Z" fill="url(#paint5_linear_1:783)"/>
<path d="M44.9459 28.8838C44.9459 24.993 52.8208 20.8222 52.8208 20.8222L49.6459 7.09561C49.1479 8.27839 48.3075 9.30555 47.3426 10.0214C41.1797 14.6592 33.5227 22.9387 40.6505 29.4129C43.3585 31.7785 45.9419 34.9222 44.1055 38.4706C42.0512 42.5792 38.9386 45.5984 35.3591 48.3998C34.5498 49.0223 33.7717 49.6448 32.9935 50.2673C38.4094 48.4309 48.4631 44.26 50.5797 37.9414C53.4744 29.195 44.9459 32.7745 44.9459 28.8838Z" fill="url(#paint6_linear_1:783)"/>
<path d="M100.068 40.3691C100.131 38.5016 100.504 37.0075 100.504 37.0075L94.9637 39.4353L95.1194 40.2135C96.7691 40.3691 98.4499 40.4625 100.068 40.3691Z" fill="#F2F2F2"/>
<path d="M100.067 40.3682C98.4485 40.4616 96.7677 40.3682 95.1492 40.2437L96.2697 45.7218C96.2697 45.7218 102.806 48.5232 101.001 45.2238C100.223 43.7298 100.036 41.9245 100.067 40.3682Z" fill="white"/>
<path d="M96.7363 36.1052C96.3005 35.2337 97.1721 34.4867 97.8257 34.2688C99.0707 33.6774 100.16 32.9615 101.25 32.2145C100.72 31.4675 100.316 30.9694 100.316 30.9694C84.7839 30.5959 92.5343 40.4629 92.5343 40.4629C92.5343 40.4629 97.2966 39.7158 100.596 38.7821C98.9774 38.4397 97.5456 37.6304 96.7363 36.1052Z" fill="#F2F2F2"/>
<path d="M103.678 37.2867C103.958 36.2595 102.34 33.7383 101.219 32.2131C100.13 32.9601 99.0405 33.676 97.7954 34.2674C97.1418 34.4853 96.2703 35.2323 96.706 36.1039C97.5153 37.629 98.9471 38.4383 100.566 38.7807C102.246 38.3138 103.523 37.7847 103.678 37.2867Z" fill="white"/>
<path d="M93.8137 33.8329C93.8137 33.8329 99.1985 34.3932 103.027 30.3157C106.824 26.2071 101.72 20.1686 95.1833 25.2111C88.6468 30.2535 89.674 35.1402 89.674 35.1402C89.674 35.1402 80.0249 38.3151 81.6746 46.5635C83.3243 54.843 90.172 55.1231 95.6191 53.5357C101.097 51.9483 94.9654 36.074 94.0316 35.327C94.0316 35.327 91.5104 35.4826 92.2263 33.9575C92.9733 32.4945 93.8137 33.8329 93.8137 33.8329Z" fill="#C1C1C1"/>
<path d="M105 44.1647L98.1673 43.1255L92.0105 44.6843C93.0782 45.8417 94.4661 46.5977 95.9608 47.1041C99.2706 47.8275 102.794 46.6242 105 44.1647Z" fill="white"/>
<path d="M104.189 44.1653C102.095 46.211 98.7527 47.4745 95.6464 46.933C97.132 47.3843 98.7527 47.4144 100.306 46.933C102.129 46.4216 103.75 45.489 104.999 44.2254L104.189 44.1653Z" fill="#C1C1C1"/>
<path d="M57.52 51.8545C57.271 52.726 57.1465 53.3485 57.1465 53.3485C57.1465 53.3485 62.6247 61.3168 69.379 66.6393C69.8459 66.0791 70.2505 65.4877 70.624 64.8029C65.7373 61.13 61.5352 56.5856 57.52 51.8545Z" fill="#F2F2F2"/>
<path d="M71.5301 59.4177C67.6705 56.2117 61.0095 50.5156 60.2003 48.3057C59.3599 46.0646 58.146 49.6752 57.5546 51.8852C61.5387 56.5852 65.7407 61.1607 70.6586 64.8647C71.5301 63.1528 71.9659 61.223 71.5301 59.4177Z" fill="white"/>
<path d="M71.6235 59.511V59.4798C71.5924 59.4487 71.5613 59.4487 71.5301 59.4176C72.1527 61.9388 71.0321 64.709 69.3824 66.6699C69.6626 66.8878 69.9738 67.1368 70.2851 67.3547C71.748 65.0825 72.2149 62.1567 71.6235 59.511Z" fill="#F2F2F2"/>
<path d="M128.613 46.1279C127.804 48.0266 126.933 49.8942 125.874 51.6372C120.147 51.9485 114.451 50.6723 109.253 48.3067C108.382 47.9955 107.323 47.2173 106.763 47.6531C105.923 48.5558 105.58 49.8008 105.3 51.077L106.856 50.8902C106.856 50.8902 120.676 54.2207 127.15 52.5087C127.15 52.5087 127.866 49.8008 128.738 46.1591C128.707 46.1591 128.707 46.1591 128.676 46.1591C128.645 46.1279 128.645 46.1279 128.613 46.1279Z" fill="#C1C1C1"/>
<path d="M109.248 48.307C114.415 50.6725 120.142 51.9798 125.869 51.6374C126.928 49.8633 127.799 48.0268 128.609 46.1281C126.399 45.5679 124.033 44.7275 122.601 43.0467L121.667 45.9414L106.883 44.2295L104.859 44.0427C103.708 45.35 102.214 46.3149 100.533 46.844C97.7939 47.8089 94.7124 46.6884 92.8137 44.6341L86.8375 46.0036L74.3249 61.7534C74.3249 61.7534 73.2043 60.8819 71.6169 59.5434V59.5746C72.0527 61.4732 71.9282 63.5276 71.2745 65.364C72.7375 66.4223 74.2315 67.4183 75.8189 68.2898C81.2037 63.4342 85.4057 57.4891 88.9852 51.2328C89.3276 51.7619 89.6077 52.2911 89.8879 52.8202L105.326 51.0772C105.606 49.801 105.949 48.5871 106.789 47.6533C107.318 47.2176 108.377 47.9646 109.248 48.307Z" fill="#DEDEDE"/>
<path d="M75.8207 68.258C74.2333 67.3554 72.7392 66.3905 71.2763 65.3322C71.0273 66.0481 70.6849 66.7329 70.2803 67.3554C72.0856 68.6938 73.9531 69.8143 75.8207 70.5302C75.8207 70.5302 84.8472 61.5037 89.6718 52.8507L89.8896 52.8195C89.6095 52.2904 89.2982 51.7613 88.987 51.2321C85.4075 57.4573 81.2055 63.4024 75.8207 68.258Z" fill="#C1C1C1"/>
<path d="M122.853 42.2675L122.604 43.0457C124.067 44.7576 126.464 45.598 128.674 46.1583C128.705 46.1583 128.705 46.1583 128.736 46.1583C128.767 46.0649 128.798 45.9404 128.798 45.847C126.433 45.4424 124.098 44.3219 122.853 42.2675Z" fill="#F2F2F2"/>
<path d="M127.334 28.5726C127.303 28.6348 127.272 28.6659 127.272 28.6659L123.817 39.311C125.623 36.0428 126.868 32.5567 127.397 28.8838C127.397 28.7904 127.366 28.6659 127.334 28.5726Z" fill="#F2F2F2"/>
<path d="M131.694 27.795C131.103 23.1261 127.865 27.7639 127.336 28.542C127.367 28.6665 127.399 28.7599 127.367 28.8533C126.838 32.5261 125.593 36.0123 123.788 39.2805L122.823 42.2063C124.068 44.2918 126.402 45.4123 128.768 45.7858C130.262 39.654 132.099 30.9387 131.694 27.795Z" fill="url(#paint7_linear_1:783)"/>
<path d="M112.709 82.4513C112.46 81.5487 112.211 80.6771 111.962 79.8056L98.173 81.4242C98.173 81.4242 98.3909 82.6381 98.8266 84.7858C103.558 85.1282 108.413 84.4123 112.709 82.4513Z" fill="#E5E5E5"/>
<path d="M120.833 140.158C119.682 123.319 117.378 99.9126 112.678 82.4509C108.383 84.4119 103.559 85.1278 98.7963 84.7854C100.508 93.3762 105.613 117.094 114.048 141.404C116.351 141.808 118.686 141.217 120.833 140.158Z" fill="white"/>
<path d="M121.484 151.426C121.328 148.22 121.11 144.391 120.83 140.158C118.683 141.216 116.348 141.808 114.045 141.403C115.29 144.983 116.597 148.593 117.998 152.173C119.212 152.173 120.363 151.893 121.484 151.426Z" fill="white"/>
<path d="M121.486 151.427C120.365 151.894 119.183 152.174 118 152.174C119.245 155.349 120.521 158.492 121.859 161.574C121.891 161.574 121.797 157.683 121.486 151.427Z" fill="white"/>
<path d="M106.046 84.4742C106.201 83.3226 106.295 82.2954 106.326 81.4239L91.6655 78.0934C91.6655 78.0934 91.2297 79.8987 90.5449 83.1358C95.4317 84.7855 100.879 85.3146 106.046 84.4742Z" fill="#E5E5E5"/>
<path d="M118.898 152.112C117.902 148.688 116.968 145.14 116.035 141.529C115.35 141.56 114.696 141.529 114.011 141.405C115.257 144.984 116.564 148.595 117.964 152.174C118.307 152.174 118.618 152.143 118.898 152.112Z" fill="#F2F2F2"/>
<path d="M118.903 152.111C118.591 152.142 118.311 152.173 118 152.173C119.245 155.348 120.521 158.492 121.859 161.574C120.863 158.585 119.867 155.411 118.903 152.111Z" fill="#E5E5E5"/>
<path d="M116.066 141.529C110.744 120.363 106.822 96.832 104.954 84.6306C102.931 84.8796 100.877 84.9419 98.8223 84.7863C100.534 93.377 105.639 117.095 114.074 141.404C114.728 141.529 115.381 141.56 116.066 141.529Z" fill="#E5E5E5"/>
<path d="M90.5453 83.1058C88.3976 93.1595 83.7909 116.846 82.5459 141.249C84.6936 142.089 86.9969 142.463 89.238 142.183C95.6188 123.57 104.396 96.5833 106.077 84.4753C100.879 85.3157 95.432 84.7866 90.5453 83.1058Z" fill="white"/>
<path d="M85.5937 152.609C86.6208 149.652 87.8659 146.104 89.2043 142.182C86.9632 142.462 84.6599 142.088 82.5122 141.248C82.3254 144.827 82.2321 148.438 82.2009 152.018C83.3215 152.422 84.442 152.609 85.5937 152.609Z" fill="white"/>
<path d="M82.2013 152.018C82.1701 155.224 82.2324 158.429 82.388 161.573C82.388 161.573 83.6331 158.118 85.594 152.609C84.4423 152.609 83.3218 152.422 82.2013 152.018Z" fill="white"/>
<path d="M97.7916 76.7865C96.2665 75.6971 95.2082 74.2031 94.9903 72.3667C94.1188 65.0209 93.4651 57.5818 89.481 51.2321C89.1698 51.7924 88.8274 52.3838 88.485 52.9441C90.2592 56.0255 94.1499 63.5269 93.434 69.2541C92.5314 76.5998 88.4227 80.5839 88.4227 80.5839C88.4227 80.5839 100.935 89.3303 115.284 80.5839C115.284 80.5839 115.098 80.3038 114.755 79.868C108.935 80.7084 102.99 80.3038 97.7916 76.7865Z" fill="#C1C1C1"/>
<path d="M90.5453 83.1058C88.3976 93.1595 83.7909 116.846 82.5459 141.249C83.0439 141.436 83.5731 141.623 84.0711 141.778C87.0903 113.018 91.8837 93.9376 94.7784 84.2574C93.3466 83.9462 91.9148 83.5727 90.5453 83.1058Z" fill="#E5E5E5"/>
<path d="M82.3877 161.573C82.6056 158.398 82.8234 155.286 83.0725 152.298C82.7923 152.204 82.4811 152.111 82.2009 152.018C82.2009 155.224 82.2632 158.429 82.3877 161.573Z" fill="#E5E5E5"/>
<path d="M82.5122 141.248C82.3254 144.827 82.2321 148.438 82.2009 152.018C82.4811 152.142 82.7612 152.235 83.0725 152.298C83.3837 148.656 83.695 145.139 84.0685 141.777C83.5393 141.622 83.0413 141.435 82.5122 141.248Z" fill="#F2F2F2"/>
<path d="M114.42 53.1614C114.202 54.1263 113.548 54.78 112.894 55.4336C111.058 57.1456 108.35 57.0522 106.109 56.6164C107.447 57.4879 109.035 58.2972 110.653 58.733C110.716 58.3595 110.747 58.0171 110.747 57.7058C110.747 57.7058 115.073 56.0873 115.478 53.3793C115.633 52.3833 115.073 51.574 114.233 50.9826C114.544 51.6363 114.637 52.3833 114.42 53.1614Z" fill="#C1C1C1"/>
<path d="M104.737 54.4371C103.865 55.7443 102.589 56.5847 101.189 57.145C99.2587 57.892 96.115 58.5457 95.2435 56.4914C93.5316 52.3827 99.9746 51.5423 103.025 50.7642C98.7296 50.5463 93.7494 50.8576 90.5746 54.0947C91.3527 55.7755 91.9441 57.5497 92.4421 59.3238C96.7998 61.2536 102.465 58.4834 104.737 54.4371Z" fill="#C1C1C1"/>
<path d="M112.922 55.4329C113.576 54.7792 114.23 54.1256 114.448 53.1607C114.666 52.3825 114.572 51.6355 114.261 50.9819C112.798 49.9858 110.401 49.6435 109.032 50.1415L108.067 46.8421L87.1501 51.5421C87.1501 51.5421 87.4925 52.0402 87.9906 52.9428C88.3329 52.3825 88.6753 51.7912 88.9866 51.2309C89.578 52.1647 90.1071 53.1607 90.5429 54.1256C93.7177 50.8574 98.6979 50.5772 102.993 50.7951C99.974 51.5421 93.4998 52.4137 95.2118 56.5223C96.0833 58.5766 99.1959 57.923 101.157 57.1759C102.558 56.6468 103.865 55.7753 104.705 54.468C102.433 58.4832 96.7992 61.2534 92.3793 59.3859C93.4998 63.5879 93.9356 68.0078 94.4647 72.3965C94.6826 74.233 95.772 75.727 97.2661 76.8164C102.464 80.3337 108.409 80.7694 114.23 79.8668C112.736 77.7502 108.534 71.4939 108.689 68.8171C108.876 65.9846 110.308 61.4091 110.65 58.7322C109.001 58.2965 107.444 57.4872 106.106 56.6157C108.378 57.0514 111.086 57.1448 112.922 55.4329Z" fill="#DEDEDE"/>
<path d="M57.1465 45.411L59.2319 42.6719C59.2319 42.6719 65.0525 45.6912 64.2743 46.8117C63.4962 47.9322 59.5432 46.8117 59.5432 46.8117L57.1465 45.411Z" fill="#F2F2F2"/>
<path d="M125.873 25.429C125.686 22.6277 126.713 19.6085 125.81 16.9005C125.593 17.1184 125.53 17.4297 125.624 17.7409C126.215 19.733 125.406 23.3125 125.406 23.3125C122.667 26.7363 126.962 29.6622 126.962 29.6622L127.336 29.2887C127.367 29.1642 127.367 29.0085 127.398 28.884C127.491 28.137 125.873 26.7363 125.873 25.429Z" fill="#F2F2F2"/>
<path d="M128.646 20.6977C128.459 16.838 127.09 16.4957 126.187 16.7135C126.031 16.7447 125.907 16.838 125.813 16.9314C126.685 19.6394 125.689 22.6897 125.876 25.4599C125.876 26.7672 127.494 28.1679 127.401 28.9149C127.37 29.0394 127.37 29.1951 127.339 29.3196L131.385 25.3354C131.385 25.2732 128.957 26.6116 128.646 20.6977Z" fill="url(#paint8_linear_1:783)"/>
<path d="M129.858 20.8852C128.862 22.1925 128.302 23.9044 128.24 25.5541C128.24 27.2349 128.302 29.0402 128.925 30.6587C129.578 31.4369 130.419 31.7793 131.477 31.3124C135.585 29.476 134.465 20.0448 129.858 20.8852Z" fill="url(#paint9_linear_1:783)"/>
<path d="M129.856 20.8833C129.762 20.9145 129.669 20.9145 129.576 20.9456C126.868 21.6615 126.93 28.2291 128.922 30.6258C128.299 29.0072 128.237 27.2019 128.237 25.5211C128.299 23.9026 128.829 22.1906 129.856 20.8833Z" fill="#F2F2F2"/>
<path d="M87.1492 159.613C86.7757 159.613 86.4644 159.364 86.3711 158.99L47.1523 0.994615C47.0589 0.558851 47.308 0.123088 47.7437 0.0297096C48.1795 -0.0947943 48.6152 0.185339 48.7398 0.621103L87.9274 158.617C88.0207 159.052 87.7717 159.488 87.336 159.581C87.2737 159.613 87.2115 159.613 87.1492 159.613Z" fill="#E5E5E5"/>
<path d="M58.2387 55.0914C56.4022 54.2199 56.091 51.9477 55.8731 50.1424C55.6241 48.555 55.7486 46.6252 56.589 45.2245C53.2896 48.5239 55.6552 58.1418 59.6393 56.6477C60.6665 56.2742 61.289 55.3093 61.6003 54.0643C60.791 55.1226 59.5148 55.7762 58.2387 55.0914Z" fill="#F2F2F2"/>
<path d="M55.8714 50.1421C56.0893 51.9786 56.4005 54.2507 58.237 55.0911C59.5131 55.7759 60.8204 55.1223 61.5674 54.0329C62.5323 50.0799 60.1979 43.3567 57.739 44.3838C57.3032 44.5706 56.8985 44.8507 56.5873 45.162C55.7158 46.6249 55.6224 48.5547 55.8714 50.1421Z" fill="white"/>
<path d="M100.169 36.3848L102.721 35.5133C102.721 35.5133 103.25 36.7583 102.13 37.2563C101.009 37.7232 100.169 36.3848 100.169 36.3848Z" fill="#C1C1C1"/>
</g>
<defs>
<linearGradient id="paint0_linear_1:783" x1="36.3667" y1="11.4183" x2="115.798" y2="165.342" gradientUnits="userSpaceOnUse">
<stop stop-color="#D8D8D8"/>
<stop offset="1" stop-color="white" stop-opacity="0"/>
</linearGradient>
<linearGradient id="paint1_linear_1:783" x1="90.9978" y1="31.0364" x2="143.192" y2="94.6005" gradientUnits="userSpaceOnUse">
<stop stop-color="#D8D8D8"/>
<stop offset="1" stop-color="white" stop-opacity="0"/>
</linearGradient>
<linearGradient id="paint2_linear_1:783" x1="122.719" y1="79.6852" x2="173.057" y2="186.955" gradientUnits="userSpaceOnUse">
<stop stop-color="#D8D8D8"/>
<stop offset="1" stop-color="white" stop-opacity="0"/>
</linearGradient>
<linearGradient id="paint3_linear_1:783" x1="44.7268" y1="85.7429" x2="55.7855" y2="142.22" gradientUnits="userSpaceOnUse">
<stop stop-color="#D8D8D8"/>
<stop offset="1" stop-color="white" stop-opacity="0"/>
</linearGradient>
<linearGradient id="paint4_linear_1:783" x1="76.6195" y1="122.994" x2="75.0995" y2="161.753" gradientUnits="userSpaceOnUse">
<stop stop-color="#D8D8D8"/>
<stop offset="1" stop-color="white" stop-opacity="0"/>
</linearGradient>
<linearGradient id="paint5_linear_1:783" x1="-15.8543" y1="25.055" x2="83.8087" y2="24.9499" gradientUnits="userSpaceOnUse">
<stop stop-color="#FF000F"/>
<stop offset="1" stop-color="white" stop-opacity="0"/>
</linearGradient>
<linearGradient id="paint6_linear_1:783" x1="-30.0288" y1="18.6872" x2="79.9404" y2="20.3554" gradientUnits="userSpaceOnUse">
<stop stop-color="#FF000F"/>
<stop offset="1" stop-color="white" stop-opacity="0"/>
</linearGradient>
<linearGradient id="paint7_linear_1:783" x1="124.078" y1="22.8737" x2="138.119" y2="32.3709" gradientUnits="userSpaceOnUse">
<stop stop-color="#D8D8D8"/>
<stop offset="1" stop-color="white" stop-opacity="0"/>
</linearGradient>
<linearGradient id="paint8_linear_1:783" x1="126.597" y1="14.8534" x2="135.423" y2="20.7544" gradientUnits="userSpaceOnUse">
<stop stop-color="#D8D8D8"/>
<stop offset="1" stop-color="white" stop-opacity="0"/>
</linearGradient>
<linearGradient id="paint9_linear_1:783" x1="129.052" y1="19.3035" x2="136.965" y2="25.7959" gradientUnits="userSpaceOnUse">
<stop stop-color="#D8D8D8"/>
<stop offset="1" stop-color="white" stop-opacity="0"/>
</linearGradient>
<clipPath id="clip0_1:783">
<rect width="229" height="170" fill="white"/>
</clipPath>
</defs>
</svg>
