<svg width="22" height="21" viewBox="0 0 22 21" fill="none" xmlns="http://www.w3.org/2000/svg">
<g clip-path="url(#clip0_1:2371)">
<path d="M8.82495 15.7505V16.1985C8.82495 16.4845 8.88132 16.7678 8.99083 17.032C9.10035 17.2962 9.26086 17.5363 9.4632 17.7385C9.66554 17.9407 9.90573 18.101 10.1701 18.2103C10.4344 18.3196 10.7177 18.3757 11.0037 18.3755V18.3755C11.2898 18.3756 11.5731 18.3194 11.8374 18.21C12.1017 18.1006 12.3419 17.9402 12.5443 17.7379C12.7466 17.5357 12.9071 17.2955 13.0166 17.0313C13.1261 16.767 13.1825 16.4837 13.1825 16.1976V15.7505" stroke="black" stroke-width="1.5" stroke-linecap="round" stroke-linejoin="round"/>
<path d="M16.2119 15.7508C16.6884 15.7508 17.1453 15.5615 17.4822 15.2246C17.819 14.8878 18.0083 14.4308 18.0083 13.9544C18.0079 13.4504 17.8078 12.9672 17.4518 12.6104L16.2583 11.4178V7.87579C16.2583 6.48341 15.7052 5.14805 14.7206 4.16348C13.736 3.17892 12.4007 2.62579 11.0083 2.62579V2.62579C9.61591 2.62579 8.28056 3.17892 7.29599 4.16348C6.31142 5.14805 5.7583 6.48341 5.7583 7.87579V11.4178L4.5648 12.6104C4.20881 12.9672 4.0087 13.4504 4.0083 13.9544V13.9544C4.0083 14.4308 4.19756 14.8878 4.53445 15.2246C4.87133 15.5615 5.32825 15.7508 5.80468 15.7508H16.2119Z" stroke="black" stroke-width="1.5" stroke-linecap="round" stroke-linejoin="round"/>
<circle cx="19.7573" cy="1.75" r="1.75" fill="#FF000F"/>
</g>
<defs>
<clipPath id="clip0_1:2371">
<rect width="21" height="21" fill="white" transform="translate(0.503906)"/>
</clipPath>
</defs>
</svg>
